<svg xmlns="http://www.w3.org/2000/svg" viewBox="0 0 512 512">
  <rect width="512" height="512" rx="100" fill="#EE8C2B"/>
  <path d="M256 128c-35.3 0-64 28.7-64 64s28.7 64 64 64 64-28.7 64-64-28.7-64-64-64zm-128 96c-17.7 0-32 14.3-32 32s14.3 32 32 32 32-14.3 32-32-14.3-32-32-32zm256 0c-17.7 0-32 14.3-32 32s14.3 32 32 32 32-14.3 32-32-14.3-32-32-32zM256 384c-70.7 0-128-57.3-128-128 0-17.7 14.3-32 32-32s32 14.3 32 32c0 35.3 28.7 64 64 64s64-28.7 64-64c0-17.7 14.3-32 32-32s32 14.3 32 32c0 70.7-57.3 128-128 128z" fill="white"/>
</svg>
